<svg width="51" height="15" viewBox="0 0 51 15" fill="none" xmlns="http://www.w3.org/2000/svg">
<path d="M11.4092 12.9399L11.6455 12.8744L11.3864 12.5325L11.4092 12.9399ZM7.53112 12.8817L7.48543 13.1874C7.603 13.1764 7.74775 13.2732 7.80545 13.0563C7.80112 12.8874 7.66644 12.8781 7.53112 12.8817ZM9.41312 12.8744C9.39353 12.7912 9.32077 12.7299 9.13879 12.7872L9.19974 13.1C9.34925 13.0683 9.42611 12.9839 9.41312 12.8744ZM5.16162 12.6184L5.08887 12.8964C5.20579 12.901 5.34274 12.9916 5.42036 12.8269C5.42556 12.7237 5.43 12.6209 5.16162 12.6184ZM9.25311 13.333L9.30648 13.6532C9.43131 13.6562 9.5452 13.5846 9.51218 13.4349C9.48035 13.291 9.35379 13.3137 9.25311 13.333Z" fill="#005FAF"/>
<path d="M14.2075 1.46267C10.1729 -0.500555 5.35457 -0.445955 1.51045 1.37705C-0.471802 4.71024 -0.534918 9.3739 1.51045 13.5045C5.7455 15.5516 10.4295 15.4167 14.2372 13.5901C16.0268 10.0832 16.3223 5.86326 14.2075 1.46267ZM7.39355 11.4156L7.1544 11.4182C7.09518 10.787 6.93723 10.2565 6.59837 9.85052C5.04451 7.98925 1.86814 9.39055 2.68432 6.22736C3.1087 4.61025 7.94936 3.6565 7.39355 11.4156ZM2.69006 8.29141C3.02935 8.95106 5.15504 9.05912 5.89295 9.56407C7.06346 10.365 6.89544 11.4185 6.89544 11.4185H6.61938C6.07591 9.82735 4.55062 11.0872 3.3289 10.6587C2.56188 10.3981 2.00498 9.26853 2.69006 8.29141ZM6.56297 13.4785L6.6773 12.6125L6.88299 12.6271L6.79151 13.5804C6.69927 14.0003 6.04376 13.9442 5.96104 13.544L6.06768 12.5543L6.31148 12.5908L6.20485 13.4203C6.21838 13.6949 6.50668 13.6784 6.56297 13.4785ZM5.46835 13.715L5.23386 13.6609C5.26136 13.4758 5.49119 13.0992 5.03693 13.0992L4.91048 13.5915L4.65174 13.5451L4.92661 12.3635C5.59848 12.4334 5.65726 12.612 5.67058 12.8037C5.64406 12.9524 5.60259 13.0562 5.46846 13.0816C5.62544 13.2177 5.4703 13.5029 5.46835 13.715ZM3.97901 12.3915C3.91438 12.4734 3.78501 12.7595 3.76628 12.9875C3.74636 13.2292 3.9894 13.1783 4.04992 13.1501C4.09874 13.1275 4.13501 12.9334 4.13501 12.9334L3.96483 12.8792L4.02155 12.7167L4.40458 12.8386L4.22021 13.4483L4.06421 13.4076L4.07839 13.3128C3.88742 13.3959 3.53785 13.3336 3.49682 13.1231C3.45579 12.954 3.58007 12.4414 3.78046 12.2019C3.97522 11.9691 4.44973 12.1967 4.46131 12.3374C4.47279 12.4776 4.41487 12.6354 4.41487 12.6354L4.23624 12.6033C4.23624 12.6033 4.24717 12.5526 4.26276 12.4728C4.27922 12.3882 4.0483 12.3035 3.97901 12.3915ZM7.46208 13.3838L7.41639 13.9079L7.22596 13.9006L7.29449 12.6561C7.77008 12.6655 8.04268 12.7284 8.03359 13.0492C8.00522 13.4874 7.63367 13.3889 7.46208 13.3838ZM7.93615 11.4184H7.61754C7.58928 10.3407 7.80624 8.36938 7.2134 6.91865C6.76423 5.8189 5.62749 5.32418 5.37557 4.43579C4.97674 3.02963 5.65553 1.50817 7.93615 1.39101C9.91331 1.5849 10.5208 3.04287 10.1835 4.40033C9.60369 5.75757 9.02374 5.56254 8.30175 6.91452C7.71205 8.3638 7.93658 10.2625 7.93615 11.4184ZM11.4697 13.413L11.2487 13.4858L11.1801 12.234L11.4391 12.1685L12.0792 13.2019L11.9039 13.3111L11.6905 13.0201L11.4467 13.1074L11.4697 13.413ZM8.89188 11.4184H8.63703C8.84706 8.65055 12.4884 9.25188 12.8212 8.29141C13.3967 9.24361 13.1898 10.0465 12.5889 10.458C11.0955 11.4812 9.66356 9.70088 8.89188 11.4184ZM10.2431 12.8163L10.3574 13.3913C10.4285 13.5237 10.4768 13.4992 10.5859 13.4859C10.7125 13.3984 10.6861 13.3132 10.6622 13.202L10.8831 13.173C10.9407 13.5895 10.7334 13.632 10.5784 13.6605C10.2459 13.6833 10.1807 13.6214 10.0908 13.2094C10.0384 12.8566 9.94785 12.4841 10.2583 12.4161C10.768 12.3418 10.7379 12.5609 10.7841 12.7144L10.5631 12.7509C10.5278 12.619 10.477 12.5667 10.365 12.5764C10.2629 12.6212 10.221 12.6937 10.2431 12.8163ZM9.77831 13.413C9.78892 13.5942 9.72451 13.7146 9.60304 13.755L9.0849 13.8569L8.87921 12.6561C8.98552 12.6396 9.5068 12.4572 9.63346 12.7872C9.69593 12.9888 9.63119 13.0611 9.55725 13.151C9.69744 13.1941 9.74475 13.2983 9.77831 13.413ZM8.44779 7.387C9.60207 4.28265 12.2433 4.83123 12.8291 6.22747C13.6316 9.02914 11.0475 8.2608 9.39215 9.40968C8.76651 9.92942 8.43729 10.5257 8.43242 11.4296H8.14877C8.13178 9.60895 8.10092 8.31975 8.44779 7.387Z" fill="#005FAF"/>
<path d="M26.2149 7.21225C29.42 5.7551 29.894 1 25.3349 1H20.0552L18.1041 4.83476H19.0223L16.6885 13.9998H22.8098C27.2757 14.0381 29.2841 8.76715 26.2149 7.21225ZM22.8098 10.6636H21.2795L21.8533 8.59287H23.3071C25.0288 8.93792 23.9576 10.7402 22.8098 10.6636ZM23.728 6.25353H22.4273L22.8098 4.45123H24.2636C25.6683 4.79638 24.455 6.33028 23.728 6.25353Z" fill="#005FAF" stroke="#005FAF" stroke-width="0.5"/>
<path d="M40.2076 5.79427L42.1844 2.36937L39.5095 1L39.1606 1.42262C37.7176 0.672949 30.1616 1.70804 29.6885 9.02347C29.9713 15.1602 36.9777 14.0563 37.6649 13.667L39.592 9.75732C37.7047 10.9774 33.8402 11.5631 33.6768 7.89812C34.0157 4.87587 37.6514 3.74723 40.2076 5.79427ZM50.0719 1.06477H43.9948L42.0632 4.65713H43.0555L38.4757 13.6186H42.9087L43.8188 11.4571H46.54L46.6078 13.6186H50.6885L50.0719 1.06477ZM45.0517 8.54691L46.5399 5.06053L46.6077 8.54691H45.0517Z" fill="#005FAF" stroke="#005FAF" stroke-width="0.5"/>
</svg>
